<svg xmlns="http://www.w3.org/2000/svg" width="137" height="154" fill="none" viewBox="0 0 137 154">
    <path fill="#31C5E6" d="M102.03 45.667L75.289 26.742 48.547 45.667h2.263v39.7H99.767v-39.7h2.263z"/>
    <path fill="#000E60" d="M132.474 139.468c-2.468-2.674-5.759-4.319-9.462-4.731h-.206v-.205c-3.702-6.377-10.696-10.491-18.307-10.491-4.526 0-8.846 1.439-12.549 4.114l-.617-.617 25.096-35.793c16.251-23.245 13.577-54.718-6.582-74.671C100.384 7.61 88.454 1.85 75.288.41 73.025.206 70.763 0 68.706 0 58.009 0 47.518 2.88 38.467 8.228c-.617.412-1.029.823-1.234 1.646-.206.617 0 1.44.205 2.057.618 1.234 2.263 1.646 3.497.823 8.229-4.937 17.691-7.611 27.36-7.611 14.193 0 27.564 5.554 37.643 15.633 18.308 18.308 20.777 46.901 5.966 68.089l-32.296 46.078h-.206c-6.377 1.028-11.52 5.76-13.165 11.931l-.206.823-.41-.617c0-.206-1.03-1.44-5.966-8.434L24.89 88.865c-11.93-17.28-12.753-39.907-2.057-57.803.412-.618.412-1.235.206-1.852s-.617-1.234-1.234-1.645c-1.234-.617-2.88-.206-3.497.822C6.377 48.135 7.2 73.025 20.57 91.951l16.25 23.244-.411.206c-6.994 2.468-12.548 7.2-16.045 13.576l-.206.206h-.206c-5.142.412-9.873 2.88-13.576 6.583C2.263 139.88 0 145.434 0 151.194c0 1.44 1.234 2.674 2.674 2.674h131.652c1.44 0 2.674-1.234 2.674-2.674 0-4.732-1.646-8.64-4.526-11.726zm-72.202 8.64H5.554v-.411c1.44-7.817 8.228-13.577 16.25-13.783 1.03 0 1.852-.617 2.264-1.44 3.085-6.376 8.845-11.108 15.633-12.959h.206l20.365 28.593zm71.38 0H71.586l.205-.617c1.44-4.526 5.76-7.817 10.491-7.817 1.44 0 2.88.206 4.114.823.617.206 1.44.206 2.058 0 .617-.206 1.234-.823 1.44-1.44 2.468-5.965 8.228-9.874 14.81-9.874 6.171 0 11.725 3.497 14.4 9.051.411.823 1.234 1.44 2.262 1.44 4.732 0 8.846 3.291 10.286 7.817v.617z"/>
    <path fill="#000E60" d="M29.21 21.394c.617 0 1.44-.206 1.851-.823.412-.412.823-1.235.823-1.852s-.206-1.44-.823-1.85c-1.028-1.03-2.674-1.03-3.703 0-.41.41-.822 1.233-.822 1.85s.205 1.44.822 1.852c.412.617 1.029.823 1.852.823zM37.85 51.632h3.085v33.53c0 1.44 1.235 2.674 2.675 2.674h49.986c1.44 0 2.674-1.234 2.674-2.674v-33.53h3.086c1.028 0 2.057-.823 2.468-1.851.412-1.029 0-2.263-1.028-2.88L69.94 25.096c-.823-.617-2.057-.617-3.086 0l-30.65 21.805c-1.028.617-1.44 1.851-1.028 2.88.617 1.234 1.645 1.851 2.674 1.851zM73.23 65.003v17.69h-9.256v-17.69h9.256zm2.675-5.348h-14.4c-1.44 0-2.674 1.234-2.674 2.674v20.365H46.284V51.838h44.844v30.856H78.58V62.329c-.206-1.44-1.235-2.674-2.674-2.674zM46.078 46.489L68.706 30.65l22.627 15.84H46.078z"/>
</svg>
