<svg xmlns="http://www.w3.org/2000/svg" width="182" height="113" fill="none" viewBox="0 0 182 113">
    <path fill="#31C5E6" d="M181.656 30.922h-75.544L88.552.5h75.545l17.559 30.422z"/>
    <path fill="#000E60" d="M181.247 36.027L163.076 5.809c-.613-.817-1.634-1.43-2.655-1.43H21.584c-1.021 0-2.042.613-2.655 1.43L.758 36.027c-.817 1.429-.408 3.267 1.02 4.083.41.204 1.022.409 1.634.409h15.11v69.418c0 1.634 1.428 3.063 3.062 3.063H160.42c1.634 0 3.063-1.429 3.063-3.063V40.519h15.109c1.633 0 3.062-1.43 3.062-3.063 0-.408-.204-1.02-.408-1.43zm-162.726-1.43h-9.8l9.8-16.333v16.334zm27.155-24.296h12.046v21.642l-4.287-2.858c-1.021-.613-2.246-.613-3.267 0l-4.288 2.858V10.301h-.204zm33.28 96.778h-54.31V10.505h15.11V37.66c0 1.634 1.428 3.063 3.062 3.063.612 0 1.225-.204 1.633-.409l7.35-4.9 7.35 4.9c1.43 1.021 3.267.613 4.288-.816.409-.409.408-1.021.408-1.634V10.71h15.11v96.37zm78.403 0H84.877V18.264l12.455 20.825c.613.817 1.43 1.43 2.654 1.43h57.373v66.56zm-55.535-72.481L87.328 10.505h71.46l14.496 24.093h-71.46z"/>
</svg>
