<svg xmlns="http://www.w3.org/2000/svg" viewBox="0 0 1255.3 512.5"><defs><style>.cls-1{fill:#fff;}</style></defs><g id="Layer_2" data-name="Layer 2"><g id="Layer_1-2" data-name="Layer 1"><path class="cls-1" d="M986.4,448.2a54,54,0,0,1-1.9,15.2,30.8,30.8,0,0,1-4.5,10.4,10.8,10.8,0,0,1-5.1,3.9,17.9,17.9,0,0,1-5.7.9h-9.3V417.7h9.2a21.4,21.4,0,0,1,5.8.8,10,10,0,0,1,5.1,4,29.6,29.6,0,0,1,4.7,10.4A62.1,62.1,0,0,1,986.4,448.2Zm-7.7-.1a44.4,44.4,0,0,0-1-10.3,16.1,16.1,0,0,0-3.1-6.7,5.7,5.7,0,0,0-3.2-1.9h-4.1v38.1h.2l4.2-.2a5,5,0,0,0,3.3-2.2,17.9,17.9,0,0,0,2.8-6.5A49.5,49.5,0,0,0,978.7,448.1Zm12,30.5V417.7h20.1v11.6H998.2V440h11.6v11.6H998.2V467h12.6v11.6Zm47.9-41.7a51.3,51.3,0,0,1-.6,8.1,27.2,27.2,0,0,1-1.9,6.4,21.4,21.4,0,0,1-1.7,3,9,9,0,0,1-2,2.3,9.7,9.7,0,0,1-2.4,1.5,8.2,8.2,0,0,1-2.8.5h-3.9v19.9h-7.5V417.7h11.5a9.3,9.3,0,0,1,4.5,1,9.2,9.2,0,0,1,3.3,3,18.1,18.1,0,0,1,2.6,6.1A40.6,40.6,0,0,1,1038.6,436.9Zm-7.6.4a14.2,14.2,0,0,0-.6-4.4,6.1,6.1,0,0,0-1.4-2.6,4.3,4.3,0,0,0-2.1-1.1h-3.6v18.2h2.5a4.1,4.1,0,0,0,1.6-.3,3.8,3.8,0,0,0,1.3-.8,4.1,4.1,0,0,0,1-1.3,11.9,11.9,0,0,0,1-3.2A25.1,25.1,0,0,0,1031,437.3Zm17.3,41.3V429.3h-8.7V417.7h24.9v11.6h-8.7v49.3Zm26.1,0h-7.1V462.5h7.1Z"/><path class="cls-1" d="M850.7,346.6c-.5-1.3-.2-2.8-.2-4.3q0-52.7-.1-105.5a74.2,74.2,0,0,0-1-14.8c-1.7-8.8-7.5-13.3-16.1-11.6-6.4,1.3-11.2,4.7-14.1,10.7a35.9,35.9,0,0,0-3.2,11.3c-.9,6.6-.6,13.2-.6,19.9q-.1,43.9-.1,87.9v3.5c0,3.4-.1,3.4-3.2,3.4H761.7c-3.5,0-3.5.2-3.5-3.6V277c0-12-.1-24,.1-36,.1-6.3-.7-12.5-1.3-18.7-.4-4.4-1.8-8.6-6.1-10.7-7-3.3-16.9-.8-21.6,5.4s-5.7,11.5-6,18.1c-.2,4.4,0,9,0,13.5V342a20.8,20.8,0,0,0,0,2.5c.1,1.8-.4,2.9-2.5,2.6a13.4,13.4,0,0,0-2,0H669.3c-4.1,0-4.1.6-4.1-4,.1-27.1,0-54.3,0-81.4V176c1.2-1.3,2.4-.8,3.5-.8h46.5c4.4,0,4.1-.5,4.1,3.9V195c5.4-5.8,10.6-11,17.1-15a54.7,54.7,0,0,1,20.8-7.4,72.6,72.6,0,0,1,24.6.4c12.3,2.5,21.9,8.8,28.5,19.6l1.5,2.5c5.2-5.2,10.1-10.6,16.4-14.5a55.8,55.8,0,0,1,25.2-8.3,82.1,82.1,0,0,1,22.1.8c15.1,2.7,24.9,11.3,29.7,25.8a77.3,77.3,0,0,1,3.7,21.8c.8,31.5.2,63,.4,94.4v29c-.1,2.9-.1,3-2.6,3h-55C851.4,347.1,851.1,346.8,850.7,346.6Z"/><path class="cls-1" d="M257.1,200.2c-2.1.6-3.7,2.1-5.3,3.5a164.1,164.1,0,0,0-36.5,45.5c-10.1,18.3-17.4,37.6-24,57.3-4.6,13.9-8.4,28.1-11.6,42.3s-5.6,25.4-7.5,38.3c-1.4,9.3-3.5,18.5-4.6,27.8-.7,6.2-1.7,12.4-2.5,18.6s-1.3,13.8-2.6,20.6c-.8,4.2-.6,8.6-1.2,12.8-1.3,8.9-1,17.8-2.8,26.6a12.7,12.7,0,0,0-.1,2c-.1,5.4.1,10.9-1.9,17,0-9-1.4-17-2.4-25.1-1.4-10.8-2.9-21.5-4.4-32.3-1.2-8.5-2.6-16.9-3.7-25.4s-2.9-16.5-4.4-24.8-2.8-15.9-4.3-23.8-2.7-13.3-4.1-19.8c-2.6-11.8-5.2-23.5-8.1-35.1-1.6-6.9-3.6-13.7-5.6-20.5-2.7-9.6-5.2-19.4-8.3-28.9l-7.8-23.3C98,237.7,91.8,222.3,85.3,207a508.1,508.1,0,0,0-24.6-49.6A399.8,399.8,0,0,0,30.1,111c-4.5-5.8-9.4-11.2-14-16.8a42.1,42.1,0,0,1-4.4-5.8c4.1,1.8,7.4,4.7,10.5,7.7.5.5.9,1.4,1.6,1.8,12.5,7.1,23.5,16.5,35.5,24.3,9.6,6.2,19.2,12.5,28.9,18.4a502.2,502.2,0,0,0,46.4,24.7,427.2,427.2,0,0,0,43.5,17.2,353.5,353.5,0,0,0,43,11.4c7.5,1.4,15.2,3.1,23,3.5,4.2.2,8.4,1.2,12.6,1.9.2.1.3.5.5.8Z"/><path class="cls-1" d="M316.3,133.3V72c1.1-1.2,2.3-.7,3.4-.7,12-.1,24.1.3,36-.4,17.1-.8,34.3,0,51.4-1s33.2-.4,49.9-.7l1,.4v52.5h-5.1c-9.8.1-19.6.9-29.4,1.3-12.7.7-25.5,1.5-38.2,2-4.3.2-8.6.7-12.9.8-1.5,0-2.1.6-2,2.1s0,2,0,3c0,15.5.1,31,0,46.5,0,3-.4,3.5,3.2,3.4,7.1-.1,14.3.3,21.4-.3,13.8-1.1,27.6-.3,41.4-.8,3-.1,6,.2,8.9-.6s2.9-.1,3,2.5v49c0,3.3-.1,3.3-3.5,3.6a18.6,18.6,0,0,1-3.4.4c-16.4.2-32.8.1-49.3.6-6.4.2-12.9.5-19.4.5-1.6,0-2.4.6-2.3,2.4s0,2.3,0,3.5V342.4c0,2-.7,2.3-2.8,2.3-9.3-.4-18.6-.4-27.9-.7-7.1-.3-14.2-.9-21.4-.8-1.4.1-2.1-.4-2-2v-4q0-77.4-.1-154.9v-3a5.8,5.8,0,0,1,.9-2.3c4.4-5.7,9-11.3,13.5-16.9,9.7-12.1,19.8-23.9,29.8-35.7s17.1-20.9,25.7-31.4c-2.8-.5-3.1-.7-3.5.1-1.5,2.3-4,3-6,4.4-5.3,3.6-10.6,7.4-16.1,10.5-8.9,5.1-17.4,10.8-26.3,15.7C328.3,127,322.8,131,316.3,133.3Z"/><path class="cls-1" d="M577.1,335.2c-7.7,5.7-15.7,10.7-24.6,14-10.8,3.9-21.9,4.8-33,.9A44.2,44.2,0,0,1,501.7,338c-9.7-10.7-15.6-23.5-19.4-37.3a163.7,163.7,0,0,1-4.4-23.2c-.4-4.5-.2-9.1-1.2-13.7a15.2,15.2,0,0,1,.2-7.9,9.2,9.2,0,0,0,.3-2.9c.8-18.1,4.5-35.5,12.8-51.7,6-11.7,14.3-21.5,26-27.9a51.5,51.5,0,0,1,21.1-6.1c13-.9,25.2,2,37.1,6.9,1.8.8,3.9,1.2,5.4,2.3a11.1,11.1,0,0,0,8.6,1.6c7.4-1.2,14.8-1.5,22.2-2,5-.4,10.1-1.4,15.2-1.7,1.9-.1,2.6.5,2.6,2.5s0,6.6,0,10c0,31.8-.1,63.6,0,95.4,0,16.5,0,33,.2,49.5,0,2.9-.8,4.3-3.6,5.3-10.7,4.2-21.4,8.6-32,12.9l-6.9,2.9c-1.5.6-2.2.4-2.7-1.4-1.4-4.9-3.1-9.7-4.8-14.5C578.2,336.4,578.2,335.7,577.1,335.2Zm1.2-78.2v-3c0-11.5-.1-23,0-34.4,0-1.8,0-3.3-1.8-4.3-5.5-2.8-11.4-4.9-17.5-4.7-8,.3-14.7,3.8-20.1,10.2-8.5,10.1-11.6,22.3-13.3,34.9a60.7,60.7,0,0,0,.7,20.8c1.4,6.6,3.1,13.1,6.9,18.7,4.9,7.2,11.3,11.4,20.3,11.2s15.3-3.6,22.2-7.7a4.7,4.7,0,0,0,2.6-4.7C578.2,281.6,578.3,269.3,578.3,257Z"/><path class="cls-1" d="M316.3,133.3c6.5-2.3,12-6.3,17.9-9.6,8.9-4.9,17.4-10.6,26.3-15.7,5.5-3.1,10.8-6.9,16.1-10.5,2-1.4,4.5-2.1,6-4.4.4-.8.7-.6,3.5-.1-8.6,10.5-17,21.1-25.7,31.4s-20.1,23.6-29.8,35.7c-4.5,5.6-9.1,11.2-13.5,16.9a5.8,5.8,0,0,0-.9,2.3c-3.4,3.1-5.6,7.1-8.2,10.8-10.4,14.7-19.1,30.4-27.2,46.4-5.3,10.7-9.9,21.8-14.5,32.9s-7.9,20.5-11.4,30.9c-2.1,6.2-4,12.4-6,18.7l-5.7,18.8c-4.3,14.6-8.1,29.3-11.9,44.1-1.7,6.3-3.1,12.7-4.7,19-2.8,11.5-4.9,23.2-7.4,34.7-1.5,7.1-3.3,14.1-4.7,21.1-2.2,11-4.2,22-6.2,33l-2.4,12.4a1.4,1.4,0,0,1-1.5-1.2c-1.2-8.7-2.7-17.3-3.8-25.9-.9-6.5-1.8-13.1-2.5-19.6s-1.4-14.8-2.7-22.1a107.5,107.5,0,0,1-.9-11.3c-.4-7-1-13.9-1.4-20.8a395.9,395.9,0,0,1-.5-44.9c.3-6.7.2-13.5,1.4-20.2.8-4.2.5-8.6,1.2-12.9,2-12.1,4-24.2,7.7-36,2.4-7.6,4.8-15.3,7.8-22.7a177.3,177.3,0,0,1,12.5-24.1,193.1,193.1,0,0,1,27.7-34.1,39.8,39.8,0,0,1,5.1-4.1,2.3,2.3,0,0,0,1.1-2h.1c.9-.1,1.3-.9.8-1.3a16.5,16.5,0,0,0-4.4-2.2c-8.2-2-15.7-5.7-23.6-8.3-2.2-.7-3.3-1.7-3.8-4s-1.9-6.2-2.9-9.4c3.9-2.3,8.3-3.1,12.5-4.5,12-4.3,23.9-9,35.6-14.2,10-4.4,20-9.1,29.7-14.3C306.2,139.1,311.6,136.8,316.3,133.3Z"/><path class="cls-1" d="M1109.4,424.8c-.3-1.7,1.2-2.3,2-3.2,11-12.1,20.9-24.9,28.8-39.2a138.7,138.7,0,0,0,12.8-33.7c.9-3.8,1.2-7.8,2-11.7.2-1.4-.5-2.6-.8-3.8-3.2-10.4-6.6-20.7-9.9-31l-18.9-58.7c-6.5-20.4-12.9-40.8-19.5-61.2-.6-1.7-.4-3.6-1.6-4.8.6-1.4,1.5-1.2,2.3-1.2h47c3.3.1,3.4.1,4.2,3.4,3.2,12.1,6.3,24.2,9.4,36.3,2.6,9.8,5.2,19.7,7.7,29.6.9,3.3,1.6,6.7,2.5,10s1.4,4.4,2.3,7.3c2.7-7.4,5.1-14.2,7.5-21q11.1-31.7,22.1-63.3c1.2-3.4,1.2-3.4,4.4-3.4h39a3,3,0,0,1,2.6.7l-8.9,23.8q-11.6,31.1-23.2,62.1t-23.3,62.4L1185.2,364c-6.7,18-13.4,36.1-20.3,54-.9,2.4-.7,5.9-3.3,6.9s-4.9.4-7.4.4h-40.5C1112.3,425.3,1110.7,425.7,1109.4,424.8Z"/><path class="cls-1" d="M1033.7,74.7a81.8,81.8,0,0,0,26.6-.3c8.6-1.4,16.6-4.6,25-8.1V339.5c0,5.7,0,5.7-5.9,5.7h-42.5c-3.5-.1-3.5-.1-3.5-3.5s0-7.4,0-11q-.2-125.4,0-250.9C1033.4,78.2,1033.1,76.5,1033.7,74.7Z"/><path class="cls-1" d="M607.2,47.3c3.1-1.7,4.6-4.7,7-6.6,6.2-5,13.2-6.3,20.8-5,5.9,1,10.1,4.5,13.4,9.3.8,1.1.9,2.6,2.5,3.2,3.3-4.9,7.3-9,12.9-11,7.9-2.9,15.7-3.2,23.1,2,4,2.8,6.1,7,7.2,11.4a76.1,76.1,0,0,1,2.1,19.1c-.1,21.2,0,42.3,0,63.5v3.5c-.2,3-.4,3.3-3.6,3.4H669c-1.3-1.7-.7-3.6-.7-5.3V72.3a33,33,0,0,0-.9-9.4,5.9,5.9,0,0,0-9-3.5c-4.1,2.7-5.5,6.8-6,11.3a41.3,41.3,0,0,0-.1,5v59c0,1-.1,2,0,3s-.9,2.4-2.7,2.4h-21c-4-.1-4.1-.2-4.1-4.3q-.2-32.1-.1-64c0-2.5.1-5.1-.1-7.5s-1.2-4.4-3.6-5.4a5.9,5.9,0,0,0-6.5.9c-3.4,2.7-4.7,6.4-4.9,10.5s-.2,9-.2,13.4v52c0,4.2-.1,4.3-4.1,4.4H585c-3.3-.1-3.6-.4-3.6-3.8q-.1-48,0-96c0-3,0-3,3-3.1h20.5c1.7,0,2.4.6,2.3,2.4S607.2,44.5,607.2,47.3Z"/><path class="cls-1" d="M996.9,166.3V344.6c-1.3.8-2.4.5-3.6.5h-45c-1.4.1-2.2-.4-2.1-2V178.3c0-5.4,0-5,5.5-4.8,10,.4,20.1.2,29.9-2.8Z"/><path class="cls-1" d="M565.2,44H536.5c-.4-3.1-.8-6-1.1-9a16.4,16.4,0,0,0-2.8-7.2c-3.5-5.3-12.5-4.9-15.4,1.3s-1.2,12,4.4,17.4,13.1,9.3,19.8,13.8a134.9,134.9,0,0,1,14.1,10.8C562.2,77.3,565,85.3,566,94s.6,15.3-1.8,22.6c-3.1,9.6-8.4,17.3-17.9,21.8a46.6,46.6,0,0,1-27.3,4.1,86.7,86.7,0,0,1-11.1-2.1,30.7,30.7,0,0,1-20.6-18.9c-3.3-8-4-16.3-3.8-24.8.1-2.9.6-3.4,3.6-3.4h23.5c2.6,0,2.7.1,2.7,2.8a69.4,69.4,0,0,0,1.7,13.7c1.4,6.3,5.7,8,10.9,7.6s8.7-3.8,9.3-9.3a16.6,16.6,0,0,0-4.8-14.5c-4.1-4.2-8.8-7.4-13.6-10.6a158.6,158.6,0,0,1-22.4-17.5c-3.1-2.9-4.6-6.7-6-10.5a45.5,45.5,0,0,1-.2-31.9c4.1-11.6,12.5-18.7,24.2-21.6a55.6,55.6,0,0,1,28.9.9C554.2,6,563,17.2,564.3,31c.2,2.1,1.1,4.1.9,6.3S565.2,41.6,565.2,44Z"/><path class="cls-1" d="M760.9,131.2c-2.6,2.2-5.1,4-7.7,5.8a28.8,28.8,0,0,1-16.2,4.9c-14.9.1-25.2-8.8-27-23.6a36.4,36.4,0,0,1,3.1-20.6,22.7,22.7,0,0,1,8-9.3,67.9,67.9,0,0,1,21.1-10.3,41.6,41.6,0,0,0,12.4-5.9,13.2,13.2,0,0,0,4.3-4.8c1.6-3.4,1-7.9-2.1-10.2s-11-2.2-13.6,2.1a11.5,11.5,0,0,0-2,7c.2,2-.4,2.9-2.7,2.9q-12-.2-24,0c-1.8,0-2.3-.7-2.3-2.4.3-11.8,4.2-21.9,15.2-27.9,5.4-2.9,11.4-3.9,17.5-4.5,3.6-.3,7.3,0,11-.1,6.2,0,12,1.6,17.7,3.8s11.8,7.2,14.2,14.3a34.9,34.9,0,0,1,1.4,7.3c.4,6.1.8,12.2.9,18.3q.1,20.3,0,40.5c-.1,6.5,0,12.9,2.3,19.1.7,1.9-.1,2.5-1.6,2.5H765.3c-2.4,0-2.6-1.8-2.9-3.3S762.7,133.1,760.9,131.2Zm-1.6-40.1a32,32,0,0,0-15.2,6.7,14.6,14.6,0,0,0-4.7,16.7,9.4,9.4,0,0,0,10.5,5.4c4.9-1.1,7.5-4.1,8.6-9C759.8,104.5,759.2,98.1,759.3,91.1Z"/><path class="cls-1" d="M72.6,508.1c-1.6-9.8-2.6-19.5-4-29.1s-3.4-18.8-4.5-28.3c-.5-4.2-2-8.3-2.7-12.5-1.9-10.5-4.7-20.8-7.4-31.1s-6.8-22.3-10.9-33.2c-7.3-19.8-16.5-38.7-28.6-56.1A118.1,118.1,0,0,0,1.8,302.4c-1.2-1.2-1-2.2-1.8-4.2,6.5,4.9,12.2,9.5,18.2,13.6a306.8,306.8,0,0,0,33.9,20.7c6.2,3.2,12.6,6.3,19.1,9,4.6,1.9,9.5,3.5,14.3,5.1a166,166,0,0,0,18.1,4.7c6.4,1.4,12.9,2.3,19.4,3.5.3,1.8-1.6,1.8-2.5,2.5-10,8.8-16.9,19.7-22.3,31.7a200,200,0,0,0-12.9,39.2c-1.7,7.2-3.7,14.4-4.6,21.7-.7,5.7-2,11.3-2.6,17.1s-1.8,13.4-2.7,20c-.1,1,0,2-.1,3-.4,5.3-.8,10.6-1.1,15.9A2.7,2.7,0,0,1,72.6,508.1Z"/><path class="cls-1" d="M877.3,37.2V14.5a13.3,13.3,0,0,1,0-2c0-3.7.2-4,3.8-4h22c2.7.1,3.1.4,3.1,3.3.1,7,0,14,.1,20.9,0,5.4-.3,4.5,4.6,4.5h7.5c1.2-.1,1.8.4,1.8,1.7V56.5c0,1.9-1.1,2.6-2.9,2.6h-9c-1.4,0-2.1.6-2.1,2a13.3,13.3,0,0,1,0,2c.1,14.4.2,28.7.2,43,0,3,.9,5.8,1.5,8.7s2.8,3.9,5.2,4.4h1.5c1.8.3,4-.9,5.2.6s.3,3.5.4,5.3v11c-.1,2.6-.7,3.6-2.9,3.9-8,.8-16,2.2-24.1,0s-14.1-9.7-15-18.4c-1.9-18.9-.5-37.8-.9-56.8-.2-6.9.6-5.7-5.8-5.8-1-.1-2,.1-3,0a2.2,2.2,0,0,1-2.2-2.3c.1-6,.1-12,.1-18,0-1.4.9-1.6,2-1.6Z"/><path class="cls-1" d="M232,154.3c-9-.2-16.4-4-22.6-10.3-8.7-8.7-12.2-19.5-12-31.5s4.8-24.3,15-32.5,24.9-11,38.6-1.3c8.4,5.9,13.3,14.2,15.3,24.3a71,71,0,0,1,1.7,9.2,36.8,36.8,0,0,1-1,9.3c-1.7,8.1-4.6,15.6-10.6,21.7a38,38,0,0,1-14.2,9.4A29.9,29.9,0,0,1,232,154.3Z"/><path class="cls-1" d="M117.1,107.1c0-11.2,3.4-21,11-29.4,6-6.7,13.4-10.7,22.4-11.3a30.3,30.3,0,0,1,22.6,8.2,41.4,41.4,0,0,1,13.4,25.2,43.8,43.8,0,0,1-4.3,28.3c-4.4,8.6-10.9,15.2-20.4,18.4s-20.6,1.5-29.3-5.5C121.7,132.4,117.1,120.8,117.1,107.1Z"/><path class="cls-1" d="M834.1,50.1c6-8,12.2-13.8,21.6-14.7.9,3.8,1,26.6.2,32.7-2.7-1.2-5.4-.9-8.1-.9-6.1.1-9.6,3-10.5,9A77.3,77.3,0,0,0,836.2,88c.1,15.1.1,30.3.1,45.4v5.8c-1.1,1.3-2.4.8-3.5.9H812.3c-4.9,0-5-.1-5-5V48.3c0-3,.1-6,0-9,0-1.5.6-2.1,2.1-2.1h22.5c1.7,0,2.3.7,2.2,2.4S834.1,45.9,834.1,50.1Z"/><path class="cls-1" d="M998.3,111.4c-.5,10.3-4,19.3-12,26.2a23.7,23.7,0,0,1-15.8,6.1,25.6,25.6,0,0,1-19.8-9.9,35.8,35.8,0,0,1-.8-44.3c9.6-12.8,27.4-14.1,38.2-3.1a32.6,32.6,0,0,1,9.3,18.2C997.8,106.8,998.5,109.1,998.3,111.4Z"/><path class="cls-1" d="M512.8,417.4h10.8c2.8,0,3.1.4,3.4,3,.8,7.3,1.8,14.7,3,22,.7,3.7.1,7.6.4,11.4a16.1,16.1,0,0,0,1.8-7.7c0-5.6,1.1-11.1,1.9-16.7.5-3.2.6-6.5,1.2-9.8.3-1.6.5-2.4,2.3-2.3s6.4.1,9.5,0c1.5,0,2.1.6,2.1,2.1a20.1,20.1,0,0,0-.1,2.5v54.4c.1,1.3-.6,1.8-1.8,1.8h-5.5c-1,.1-1.5-.4-1.6-1.4v-34a4.4,4.4,0,0,0-.3-1.9c-2.2,12.2-3.6,24.4-4.9,36.7-.2.2-.5.5-.7.5-7.6.6-7.7.6-7.9-7.1a31.9,31.9,0,0,0-1.2-6.3c-1.1-5.3-.5-10.9-2.4-16.3-1,.9-.7,2-.7,3,0,7.8.1,15.7.1,23.5,0,3.3,0,3.3-3.1,3.4h-6C512.2,474.5,512,426.1,512.8,417.4Z"/><path class="cls-1" d="M640.3,478.1h-9.1c-1.3-1.1-.8-2.5-.8-3.8V455.9c.1-1.8-.3-2.8-2.4-2.7s-3.8.5-3.8,2.7c-.2,5.5-.1,11-.1,16.5v5l-.7.6c-3.2.1-6.3.5-9.4-.2-1.2-2.8-.5-5.8-.5-8.8-.1-15.8-.1-31.6-.1-47.4,0-4,.1-4.1,4.3-4.2h5l1,.3c.8,1.3.4,2.8.4,4.2v15c0,3.3.1,3.3,3.3,3.3s3,0,3-3v-17c0-2.8.1-2.9,2.6-2.8,8.8.1,7.2-1.6,7.2,6.8.2,16.6.1,33.3.1,49.9Z"/><path class="cls-1" d="M450.3,477.9v-59c.1-1,.6-1.4,1.6-1.5,5.7-.1,11.3-.3,16.8,1,2.7.6,4.5,2.7,5.5,5.3,2.9,7.3,3.1,14.5-1,21.4a4.7,4.7,0,0,0,0,5.4c1.5,2.5,1.8,5.2,2.1,8,.7,6.4.4,12.9,1.9,19.4-3.5.5-6.9.2-10.3.2-1.7-5.4-1.4-10.7-1.4-15.9-.1-1.7-.1-3.3-.1-5a2.9,2.9,0,0,0-2.3-2.9c-1.8-.5-2.8,0-2.8,2-.1,5.5-.1,11-.1,16.5v5.1Zm15.9-42a15.6,15.6,0,0,0-.6-4.4c-.5-2.1-1.8-2.7-3.4-3.1s-1.9,0-1.9,1.4v10.9c-.1,1.2.5,1.6,1.8,1.7a3.1,3.1,0,0,0,3.1-1.9A7.7,7.7,0,0,0,466.2,435.9Z"/><path class="cls-1" d="M893.3,451.3v22.4c0,5.4-.3,4.4-4.7,4.5h-3.5a3.3,3.3,0,0,1-.8-2.8V419.5c-.1-1.4.4-2,2-2.1,8-.6,8.6-.4,9.8,7.5.7,4.8,2.3,9.5,2.5,14.6.1,3.1,2.6,5.9,1.6,9.5,2.1-1,1.9-2.5,1.7-3.7-1.4-8.4-.5-16.9-.8-25.4-.1-1.2.5-1.8,1.7-1.8a13.3,13.3,0,0,1,2,0c5,0,4.5-.5,4.5,4.5v53.5c.1,1.4-.4,2.2-1.9,2.1h-3c-5.4,0-5.2-.1-6.1-5.3-1.1-7-2.7-13.9-4.1-20.8a1.1,1.1,0,0,0-.9-.9c0-.6.2-1.2-.3-1.7l-.5.4C892.3,450.6,892.4,451.2,893.3,451.3Z"/><path class="cls-1" d="M90.3,300c.4,6.8-1.5,12.6-6.5,17.1-7.3,6.6-14.8,7.1-22.4,1.4-11.7-8.7-10.8-29.3,1-36.9,7.6-4.8,15.2-5.1,23,4A19,19,0,0,1,90.3,300Z"/><path class="cls-1" d="M683.9,477.8c-8.6.8-8.7.8-8.7-7.5V422.8c0-1,.1-2,0-3s.6-1.7,1.8-1.7,5.4-.7,7.4.3,1.5,4.4,2.1,6.7c1.6,6.5,3,13.1,4,19.8a19.4,19.4,0,0,0,1.6,3.7c0-8.9-.1-17.1,0-25.2,0-6-.9-5.3,5.2-5.3,2.9,0,2.9.1,3,3.1v47.4c0,2.5-.1,5,0,7.5s-.5,2.2-2,2.1a20.9,20.9,0,0,0-5,0c-2.5.5-3.5-1-3.8-2.9a131.9,131.9,0,0,0-3.2-16.4c-1.1-4.3-1-8.9-2.8-13.5C682.7,456.4,685.3,466.9,683.9,477.8Z"/><path class="cls-1" d="M852.3,448c0-4.2-.1-8.4.1-12.5s.1-6.4,1.1-9.3c2.9-7.7,6.8-10.9,15-9.8a8.9,8.9,0,0,1,5.4,3.2,19.2,19.2,0,0,1,4.4,9.7c1.5,9.6.9,19.2.8,28.8a36.8,36.8,0,0,1-2.2,13.5c-2.4,6-8.4,9.2-14.5,7.4s-7.8-5.7-9.1-10.8C851.7,461.5,852.4,454.7,852.3,448Zm9.9-.8c0,4.7,0,9.4.1,14a11.2,11.2,0,0,0,.6,4.4,2.8,2.8,0,0,0,3.2,1.7c1.3,0,1.9-.6,2.3-2a15.6,15.6,0,0,0,.8-4.3V434.5a12.6,12.6,0,0,0-.8-4.3c-.4-1.4-.9-2-2.3-2s-2.5.1-3.2,1.7a8.9,8.9,0,0,0-.6,3.9C862.2,438.3,862.2,442.8,862.2,447.2Z"/><path class="cls-1" d="M480.6,447.1c-.7-5.9.3-11.6.9-17.4s2-9.2,6.6-11.9a11.6,11.6,0,0,1,14.6,2.2c3.2,3.6,4.2,7.9,4.4,12.3.6,10.7.5,21.5.1,32.2a18.8,18.8,0,0,1-4.1,10.9c-5.4,6.4-16.3,4.5-19-1.6-1.2-2.6-2.6-5.1-2.7-7.9C481.2,459.6,479.9,453.4,480.6,447.1Zm17.5.9c.8-5.6-1-11.1-.9-16.8a3.4,3.4,0,0,0-.1-1,2.8,2.8,0,0,0-3-2,2.4,2.4,0,0,0-2.6,1.8,22.9,22.9,0,0,0-1.1,5.8c-.1,7.9-.1,15.9,0,23.9a19.6,19.6,0,0,0,1.3,6.2c.9,2.3,3.6,2.3,5,.2a3.7,3.7,0,0,0,.5-1.8C497.1,458.8,498.9,453.5,498.1,448Z"/><path class="cls-1" d="M847.2,454.9c.2,5,.6,10.1-1.1,15-3.1,8.5-8.1,11.4-17.5,8.2a7.8,7.8,0,0,1-4.3-3.9,28.1,28.1,0,0,1-3.1-9.8c-1.3-8.8-.9-17.6-.6-26.3.1-5.2.5-10.5,2.9-15.4a11.6,11.6,0,0,1,20.3-1.2c3.2,4.9,3.6,10.5,3.4,16.2a1.3,1.3,0,0,1-1.6,1.4h-2c-5.7.1-5.7.1-6.2-5.8a6.9,6.9,0,0,0-1-3.7c-1.1-1.7-3.2-1.9-4.2-.2a5.2,5.2,0,0,0-1,2.3c-.5,8.5-1.9,17-.2,25.6a27.7,27.7,0,0,1,.1,5,6.4,6.4,0,0,0,1,3.8c1.2,1.8,3.2,1.8,4.3,0s1-4.1,1-6.3c.2-5.5.1-5.6,5.6-5.5C844.3,454.4,845.6,454,847.2,454.9Z"/><path class="cls-1" d="M409.7,439.1c-.2-2.1-.4-3.8-.4-5.4a6.8,6.8,0,0,0-1.3-4.2,2.2,2.2,0,0,0-4.1.3,19.9,19.9,0,0,0-1.6,7.6c0,6.5-.1,13,0,19.5a57,57,0,0,0,1,8.3,2.6,2.6,0,0,0,2.4,2.2,2.4,2.4,0,0,0,2.4-1.4,9,9,0,0,0,1.2-5.3c0-1.1.2-2.3.1-3.5s.4-3,2.7-2.9c8.5.2,7.1-1.3,7,7a26.6,26.6,0,0,1-2.4,11c-2.4,5.5-6.2,7.1-11.6,7s-8.7-3.3-10.5-7.8a31.2,31.2,0,0,1-2.2-11c0-8.5-.2-17,.1-25.5a28.8,28.8,0,0,1,3.6-13.6c4.3-7.4,16.3-7,20.3,1.4a28,28,0,0,1,2.7,13.4c-.1,2.4-.6,2.8-3,2.9Z"/><path class="cls-1" d="M738.2,455.2l1-.8c3,.1,5.9-.7,8.8.5.6,3.5.2,7-.1,10.4s-1.3,4.7-2.2,7c-1.8,4.3-5,6.6-9.8,7s-9.3-1.8-11.7-6.6-2.5-8.6-2.7-12.9q-.4-12,0-24c.2-4.1.6-8.1,2.4-12,2.7-5.5,5.9-7.7,12-7.5s8.5,3.2,10.2,8.1a33.6,33.6,0,0,1,2,12.6c0,1.4-.4,2.2-1.9,2.1h-2c-5.6.1-5.6.1-5.9-5.3-.1-1.1.2-2.3-.5-3.4s-1.7-2.5-3.6-2.1-1.8,1.6-2.1,3c-1,5.2-.8,10.5-.8,15.8s-.2,11.3.8,16.9c.4,2.2,1.4,3.6,2.9,3.4a3.5,3.5,0,0,0,3.1-3.3A88.4,88.4,0,0,0,738.2,455.2Z"/><path class="cls-1" d="M774.3,478.2c-4.4-.1-4.7-.3-5-4.7a20.2,20.2,0,0,0-.8-5.4c-.4-1.4-1-1.7-2.3-1.8-3.9-.1-4.6.4-4.9,4.3v1c0,8-.8,6.4-7.1,6.5-3,.1-3.2-.1-2.9-3,.6-5.7,1.5-11.4,2.2-17.1s2.2-12.6,2.9-19,1.9-12.7,2.9-19a2.6,2.6,0,0,1,2.9-2.6h3c6.4,0,6.3,0,6.9,6.4,1,9.1,2.6,18.2,3.8,27.3s2.8,16.2,3.3,24.5c.2,1.8-.3,2.9-2.4,2.6h-2.5Zm-10-43.9c.7,6.5-1.4,12.4-1.2,18.5.1,1.5.3,2.5,2.2,2.5s2-1,2-2.5c0-5.1-1.4-10.1-1.1-15.2C766.2,436.4,765.3,435.5,764.3,434.3Z"/><path class="cls-1" d="M672.1,478h-9.3a32.8,32.8,0,0,1-1.5-8.4c-.2-3.1-.5-3.3-3.6-3.3s-3.4.4-3.6,3.5a39.6,39.6,0,0,1-.7,5.9c-.3,1.8-.7,2.7-2.7,2.5s-3,0-4.5-.1c-3.1,0-3.1-.3-2.6-3.5,1.1-6.2,2-12.3,2.7-18.5.2-2,.7-3.9,1-5.8,1-7.5,1.8-15,3.1-22.5a66.6,66.6,0,0,0,1.1-7.8c0-1.8,1-2.6,2.8-2.6s4.7.1,7,0,2.8.9,2.8,2.7c.5,10.8,3.2,21.4,4.3,32.2C669.2,460.8,670.8,469.2,672.1,478Zm-14.4-45.1a35.2,35.2,0,0,0-1.4,9.8c-.2,3.5-.6,6.9-.9,10.4-.1.8-.2,1.6.8,2.1,2.5,1,4.5-.3,3.9-2.9C658.6,445.8,659.5,439.1,657.7,432.9Z"/><path class="cls-1" d="M598.3,454.6c12.3-.4,9.9-2,9.8,8.7-.1,5.2-1.3,10.4-6.2,13.9a11.6,11.6,0,0,1-16.7-3.3,18.8,18.8,0,0,1-3-9.8c0-6.2.2-12.5-.2-18.7-.2-4.6.5-9.2.2-13.8a19.3,19.3,0,0,1,2.3-8.9,11.5,11.5,0,0,1,20.2-1.1c3,4.9,3.8,10.4,3.5,16.1a1.4,1.4,0,0,1-1.6,1.5h-.5c-7.8-.5-6.2,1.9-7.8-6.6-.2-.9-.7-1.8-.9-2.8s-1-1.5-2.1-1.5a1.9,1.9,0,0,0-2.3,1.3,22.5,22.5,0,0,0-1.6,7.6c-.1,6.8-.1,13.6,0,20.5a43.2,43.2,0,0,0,1.1,7.2c.3,1,.7,2.3,2.2,2.5s2.1-.8,2.8-1.7a4.4,4.4,0,0,0,.8-3.3Z"/><path class="cls-1" d="M577.1,477.9H555.7c-.8-1.4-.5-2.7-.5-4V422a20.8,20.8,0,0,0,0-2.5c0-1.5.5-2.1,2.1-2.1,5.6.1,11.3,0,16.9,0,2.1,0,3,1,3,3.1s0,4.6-.1,7-.9,2.7-2.8,2.6h-7.5a1.6,1.6,0,0,0-1.8,1.8c.1,2.6,0,5.2,0,8.4h9.2c1.4,0,2.1.4,2.1,2s-.1,5.3,0,7.9-1,2.2-2.5,2.2h-8.7v11.3c0,1.2.7,1.6,1.9,1.6h8c1.4,0,2.2.4,2.1,2Z"/><path class="cls-1" d="M336,417.4v12.7H326c-1.7,0-2.7.3-2.7,2.4.1,9.2-.7,7.7,7.7,7.8h2.5c1.3,0,1.7.7,1.7,1.9s.1,5.3,0,8-.6,2.6-3,2.4a40.1,40.1,0,0,0-6-.2c-2.4,0-2.7.4-2.8,3s-.1,4.7,0,7,.5,2.9,3,2.9H336v12.3c-.8,1-2.1.5-3.2.5H316.3c-1.4,0-2.1-.5-2.1-2V420.3c.2-2.8.2-2.8,2.8-2.9Z"/><path class="cls-1" d="M387.1,440.3v2.9c0,2.8-.1,5.6-.2,8.5-2.6,1.4-5.5.4-8.2.6s-3.2.4-3.4,3.1-.1,4.7,0,7,.6,2.8,3.1,2.9h6.9a2.5,2.5,0,0,1,2.8,2.8v7.4c0,1.9-.9,2.7-2.8,2.7h-17c-1.9,0-2.1-1-2.1-2.5v-29c0-7.9-.1-15.9.1-23.9,0-1.6-1.7-3.2-.1-4.7s3.5-.6,5.3-.6c4.3-.2,8.6-.1,12.9-.1s3.6.4,3.6,3.8.1,4.4,0,6.5a2.2,2.2,0,0,1-2.5,2.4h-8c-1.7,0-2.3.7-2.2,2.4.3,9.6-1.6,7.6,7.2,7.8Z"/><path class="cls-1" d="M439.3,477.9h-9.9v-5c0-13.2-.1-26.3,0-39.5,0-3.1,0-3.4-3.3-3.3h-3.2c-.3-.6-.6-.9-.6-1.2-.1-3.6-.4-7.3.2-10.9,3.3-1.3,6.8-.4,10.3-.5s8,.1,12-.1c2.1-.1,2.6.8,2.5,2.6s0,2.7-.1,4,.5,4-.4,5.4-3.3.7-5.1.6-2.5,1.5-2.5,3.2c.1,13.2.1,26.3.1,39.5Z"/><path class="cls-1" d="M920.4,478.2V437c0-1.5-.1-3,0-4.5s-.5-2.5-2.3-2.4h-4.2a3.3,3.3,0,0,1-.5-1.2c-.1-3.6-.4-7.3.2-10.9,3.5-1.2,7.2-.4,10.8-.5s7.6,0,11.4-.1c1.7,0,2.6.4,2.5,2.2s-.1,3-.1,4.5c.1,5.7.1,5.7-5.5,6-2.4.1-2.5.1-2.5,3v40c0,6,.6,5-5,5Z"/><path class="cls-1" d="M782.6,417.9c.4-.2.5-.4.7-.4l8.4.2c1.3,2.6.5,5.5.6,8.2.1,11.2,0,22.3,0,33.5v3.4a2.2,2.2,0,0,0,2.5,2.5h5.9c2.8.1,3.3.5,3.3,3.2s.1,5.9.1,9.2c-3.6,1-7.3.3-10.8.4H782.6Z"/><path class="cls-1" d="M362.2,478.2H344.1c-2.8,0-2.8,0-2.8-3.1s0-7.3,0-11V422.1c0-1.1,0-2.3.1-3.5s.5-1.1.7-1.1c2.7,0,5.4-.6,7.9.3s1.1,2.3,1.1,3.5v22.5c0,6.3.1,12.6,0,18.9,0,1.9.5,2.9,2.5,2.6h1.5c2.3.3,5.2-1,6.6.7s.4,4.5.5,6.8S362.2,476,362.2,478.2Z"/><path class="cls-1" d="M715.9,478.2h-8.6c-1.2-.9-.9-1.9-.9-2.9-.1-18.2-.1-36.3-.1-54.5,0-3.4.1-3.4,3.7-3.4h5.4C716.4,421,716.8,467.1,715.9,478.2Z"/><path class="cls-1" d="M944.3,471.2v.5c0,7,0,7-7.1,6.5a2.2,2.2,0,0,1-2.3-1.9c-.9-3.6-.2-7.3-.3-10.9-.1-.4.4-.8.8-1.1h.9C944,463.2,944.3,463.5,944.3,471.2Z"/></g></g></svg>